<svg xmlns="http://www.w3.org/2000/svg" width="48" height="48" viewBox="0 0 48 48"><defs><style>.a{fill:#fed189;}</style></defs><title>Debug_Menu_Icon_Yellow</title><path class="a" d="M18.81,18.33c0,0.07,0,.13,0,0.2H29.17c0-.07,0-0.13,0-0.2a5.22,5.22,0,0,0-1.84-4l1.44-1.45A0.54,0.54,0,0,0,28,12.16l-1.58,1.59a5,5,0,0,0-4.9,0L20,12.16a0.54,0.54,0,0,0-.76.76l1.45,1.45A5.22,5.22,0,0,0,18.81,18.33Z"/><path class="a" d="M15.3,20.15l-0.88-2.21a0.81,0.81,0,1,0-1.5.6l1.28,3.23h3a10.1,10.1,0,0,0-1.05,4.14H14a0.81,0.81,0,0,0,0,1.62h2.22a10,10,0,0,0,1.41,4.14H14.7l-1.28,3.23a0.81,0.81,0,0,0,1.5.6l0.88-2.21h3.08a7.37,7.37,0,0,0,4.32,2.15V24.12a0.81,0.81,0,0,1,1.62,0V35.43a7.37,7.37,0,0,0,4.32-2.15H32.2l0.88,2.21a0.81,0.81,0,1,0,1.5-.6L33.3,31.66H30.41a10,10,0,0,0,1.41-4.14h2.22a0.81,0.81,0,0,0,0-1.62H31.88a10.1,10.1,0,0,0-1.05-4.14h3l1.28-3.23a0.81,0.81,0,1,0-1.5-.6L32.7,20.15H15.3Z"/></svg>