<svg xmlns="http://www.w3.org/2000/svg" width="141" height="128" viewBox="0 0 141 128"><defs><style>.a{fill:#eee;}</style></defs><title>Anaren_Atmosphere_Stacked_Logo</title><path class="a" d="M98.86,25A30.45,30.45,0,0,0,84.52,11a4.34,4.34,0,0,0-5.31,1.29L66.54,29H45.8a4.34,4.34,0,0,0-4.24,3.46A30.58,30.58,0,0,0,58.48,66.33,4.34,4.34,0,0,0,63.78,65L76.45,48.37H97.2a4.34,4.34,0,0,0,4.24-3.46A30.45,30.45,0,0,0,98.86,25m-37,35.41a.62.62,0,0,1-.56.35.63.63,0,0,1-.27-.06A24.44,24.44,0,0,1,47.56,33.78a.62.62,0,1,1,1.21.25A23.2,23.2,0,0,0,61.53,59.61a.62.62,0,0,1,.29.82m4.26-5.62a.62.62,0,0,1-.8.36A17.62,17.62,0,0,1,54.57,33.73a.62.62,0,0,1,1.19.35A16.38,16.38,0,0,0,65.72,54a.62.62,0,0,1,.36.8m4.46-5.94a.62.62,0,0,1-.61.52h-.1a10.83,10.83,0,0,1-7.92-15.76.62.62,0,0,1,1.09.58,9.6,9.6,0,0,0,7,14,.62.62,0,0,1,.51.71m10.56-5.15A.62.62,0,0,1,80,43.13a9.6,9.6,0,0,0-7-14A.62.62,0,0,1,73.17,28a10.83,10.83,0,0,1,7.92,15.76m7.34-.11a.62.62,0,0,1-.59.44l-.17,0a.62.62,0,0,1-.42-.77,16.38,16.38,0,0,0-10-19.93.62.62,0,1,1,.44-1.16A17.62,17.62,0,0,1,88.43,43.59m7-.05a.62.62,0,0,1-.61.49h-.12a.62.62,0,0,1-.48-.73A23.2,23.2,0,0,0,81.47,17.72.62.62,0,1,1,82,16.61,24.44,24.44,0,0,1,95.44,43.54"/><path class="a" d="M71.5,76.69a38,38,0,1,1,38-38,38.07,38.07,0,0,1-38,38m0-74.81a36.79,36.79,0,1,0,36.79,36.79A36.83,36.83,0,0,0,71.5,1.88"/><path class="a" d="M41.56,101.4h-.85a.37.37,0,0,1-.25-.08.53.53,0,0,1-.15-.21l-1.79-4.42H31l-1.78,4.42a.47.47,0,0,1-.15.2.4.4,0,0,1-.26.09H28l6.22-15.21h1.1ZM31.38,95.87h6.81l-3.11-7.68q-.08-.18-.15-.41t-.15-.49l-.15.49c-.05.15-.1.3-.15.42Z"/><path class="a" d="M44.74,86.23a.51.51,0,0,1,.18.17l9.84,13.17a6.18,6.18,0,0,1,0-.62V86.19h1V101.4h-.53a.47.47,0,0,1-.4-.21L44.89,88a6.08,6.08,0,0,1,0,.61v12.8H44V86.19h.54A.61.61,0,0,1,44.74,86.23Z"/><path class="a" d="M71.66,101.4h-.85a.37.37,0,0,1-.25-.08.53.53,0,0,1-.15-.21l-1.79-4.42H61.15l-1.78,4.42a.47.47,0,0,1-.15.2.4.4,0,0,1-.26.09h-.84l6.22-15.21h1.1ZM61.48,95.87h6.81l-3.11-7.68q-.08-.18-.15-.41t-.15-.49l-.15.49c-.05.15-.1.3-.15.42Z"/><path class="a" d="M75.48,94.52v6.88h-1.1V86.19h3.88a6.34,6.34,0,0,1,3.93,1,3.56,3.56,0,0,1,1.3,3,4.09,4.09,0,0,1-.3,1.59A3.73,3.73,0,0,1,82.33,93a4.62,4.62,0,0,1-1.36.89,6,6,0,0,1-1.79.46,1.74,1.74,0,0,1,.46.43l5.23,6.58h-1a.63.63,0,0,1-.3-.06.76.76,0,0,1-.24-.21L78.51,95a1.08,1.08,0,0,0-.39-.33,1.65,1.65,0,0,0-.65-.1Zm0-.82h2.64a6.26,6.26,0,0,0,1.81-.24,3.9,3.9,0,0,0,1.35-.69,3,3,0,0,0,.84-1.09,3.4,3.4,0,0,0,.29-1.43,2.79,2.79,0,0,0-1.06-2.41,5.16,5.16,0,0,0-3.09-.78H75.48Z"/><path class="a" d="M96.74,86.19v.91h-8v6.15h6.66v.89H88.73v6.34h8v.91H87.62V86.19Z"/><path class="a" d="M101.1,86.23a.51.51,0,0,1,.18.17l9.84,13.17a6.18,6.18,0,0,1,0-.62V86.19h1V101.4h-.53a.47.47,0,0,1-.4-.21L101.25,88a6.08,6.08,0,0,1,0,.61v12.8h-1V86.19h.54A.61.61,0,0,1,101.1,86.23Z"/><path class="a" d="M14.26,127.19h-.85a.37.37,0,0,1-.25-.08.53.53,0,0,1-.15-.21l-1.79-4.42H3.75L2,126.9a.47.47,0,0,1-.15.2.4.4,0,0,1-.26.09H.72L6.94,112H8ZM4.09,121.66H10.9L7.79,114q-.08-.18-.15-.41t-.15-.49l-.15.49c-.05.15-.1.3-.15.42Z"/><path class="a" d="M25.36,112v.93H20v14.27h-1.1V112.92H13.55V112Z"/><path class="a" d="M35.58,123.41l.13-.34a3,3,0,0,1,.16-.32l6-10.56A.39.39,0,0,1,42,112a.7.7,0,0,1,.24,0H43v15.21h-1v-13a5.67,5.67,0,0,1,0-.59l-6,10.63a.47.47,0,0,1-.43.28H35.5a.48.48,0,0,1-.43-.28l-6.15-10.64a5.76,5.76,0,0,1,0,.6v13H28V112h.75a.75.75,0,0,1,.24,0,.38.38,0,0,1,.18.17l6.14,10.57A4.43,4.43,0,0,1,35.58,123.41Z"/><path class="a" d="M61.09,119.58a9.22,9.22,0,0,1-.53,3.2,7.08,7.08,0,0,1-1.48,2.45,6.56,6.56,0,0,1-2.29,1.57,8.11,8.11,0,0,1-5.89,0,6.56,6.56,0,0,1-2.29-1.57,7.16,7.16,0,0,1-1.49-2.45,9.84,9.84,0,0,1,0-6.38,7.16,7.16,0,0,1,1.49-2.45,6.62,6.62,0,0,1,2.29-1.57,7.51,7.51,0,0,1,2.93-.56,7.63,7.63,0,0,1,3,.55,6.53,6.53,0,0,1,2.29,1.57,7.14,7.14,0,0,1,1.48,2.46A9.19,9.19,0,0,1,61.09,119.58Zm-1.14,0a8.68,8.68,0,0,0-.44-2.86,6.16,6.16,0,0,0-1.24-2.15,5.32,5.32,0,0,0-1.93-1.35,6.48,6.48,0,0,0-2.5-.47,6.39,6.39,0,0,0-2.48.47,5.44,5.44,0,0,0-1.93,1.35,6.13,6.13,0,0,0-1.26,2.15,9.39,9.39,0,0,0,0,5.72,6.13,6.13,0,0,0,1.26,2.14,5.38,5.38,0,0,0,1.93,1.34,6.45,6.45,0,0,0,2.48.46,6.54,6.54,0,0,0,2.5-.46,5.26,5.26,0,0,0,1.93-1.34,6.16,6.16,0,0,0,1.24-2.14A8.66,8.66,0,0,0,60,119.58Z"/><path class="a" d="M72,113.83a.3.3,0,0,1-.28.18.62.62,0,0,1-.36-.2,4.66,4.66,0,0,0-1.54-.89A4.75,4.75,0,0,0,67,113a3.05,3.05,0,0,0-1.06.64,2.74,2.74,0,0,0-.65.95,2.93,2.93,0,0,0-.22,1.13A2.3,2.3,0,0,0,65.4,117a3,3,0,0,0,.87.86,5.6,5.6,0,0,0,1.22.6l1.4.48q.72.24,1.4.52a5.06,5.06,0,0,1,1.22.71,3.28,3.28,0,0,1,.87,1.06,3.35,3.35,0,0,1,.33,1.56,4.94,4.94,0,0,1-.33,1.8,4.21,4.21,0,0,1-1,1.47,4.46,4.46,0,0,1-1.53,1,5.53,5.53,0,0,1-2.06.36,5.83,5.83,0,0,1-2.59-.53,6.1,6.1,0,0,1-1.9-1.46l.3-.47a.38.38,0,0,1,.3-.16.43.43,0,0,1,.25.13l.37.32q.22.19.52.41a4.26,4.26,0,0,0,.7.41,4.92,4.92,0,0,0,.91.32,4.85,4.85,0,0,0,1.17.13,4.46,4.46,0,0,0,1.61-.27,3.53,3.53,0,0,0,1.2-.75,3.16,3.16,0,0,0,.75-1.12,3.72,3.72,0,0,0,.26-1.39,2.45,2.45,0,0,0-.33-1.33,2.83,2.83,0,0,0-.87-.87,5.58,5.58,0,0,0-1.22-.59l-1.4-.46q-.72-.23-1.4-.5a4.83,4.83,0,0,1-1.22-.71,3.27,3.27,0,0,1-.87-1.09,3.59,3.59,0,0,1-.33-1.63,3.85,3.85,0,0,1,.29-1.47,3.66,3.66,0,0,1,.85-1.25,4.2,4.2,0,0,1,1.38-.87,5.05,5.05,0,0,1,1.88-.33,5.69,5.69,0,0,1,2.12.38,5.09,5.09,0,0,1,1.72,1.15Z"/><path class="a" d="M77.32,121.06v6.13h-1.1V112h3.92a6,6,0,0,1,4,1.17,4.17,4.17,0,0,1,1.36,3.34,4.5,4.5,0,0,1-.37,1.84,4.09,4.09,0,0,1-1.07,1.45,5,5,0,0,1-1.7.95,7,7,0,0,1-2.26.34Zm0-.88h2.83a5.42,5.42,0,0,0,1.8-.28,4,4,0,0,0,1.35-.77,3.36,3.36,0,0,0,.85-1.17,3.6,3.6,0,0,0,.3-1.47,3.39,3.39,0,0,0-1.08-2.7,4.76,4.76,0,0,0-3.22-.95H77.32Z"/><path class="a" d="M100.39,127.19H99.28V119.9H89.76v7.29H88.65V112h1.11v7.09h9.52V112h1.11Z"/><path class="a" d="M114,112v.91h-8V119h6.66v.89H106v6.34h8v.91H104.9V112Z"/><path class="a" d="M119,120.31v6.88h-1.1V112h3.88a6.34,6.34,0,0,1,3.93,1,3.56,3.56,0,0,1,1.3,3,4.09,4.09,0,0,1-.3,1.59,3.73,3.73,0,0,1-.87,1.26,4.62,4.62,0,0,1-1.36.89,6,6,0,0,1-1.79.46,1.74,1.74,0,0,1,.46.43l5.23,6.58h-1a.63.63,0,0,1-.3-.06.76.76,0,0,1-.24-.21l-4.87-6.17a1.08,1.08,0,0,0-.39-.33,1.65,1.65,0,0,0-.65-.1Zm0-.82h2.64a6.26,6.26,0,0,0,1.81-.24,3.9,3.9,0,0,0,1.35-.69,3,3,0,0,0,.84-1.09A3.4,3.4,0,0,0,126,116a2.79,2.79,0,0,0-1.06-2.41,5.16,5.16,0,0,0-3.09-.78H119Z"/><path class="a" d="M140.28,112v.91h-8V119h6.66v.89h-6.66v6.34h8v.91h-9.11V112Z"/></svg>