<svg xmlns="http://www.w3.org/2000/svg" width="256" height="128" viewBox="0 0 256 128"><defs><style>.a{fill:#eee;}</style></defs><title>Atmosphere_Lato_Macaroni_Stacked_Gray</title><path class="a" d="M25.87,127.05H24.33a0.68,0.68,0,0,1-.45-0.14,1,1,0,0,1-.27-0.37l-3.26-7.87H6.78l-3.24,7.87a0.82,0.82,0,0,1-.27.36,0.73,0.73,0,0,1-.47.15H1.28l11.3-27.11h2ZM7.39,117.21H19.76l-5.64-13.7q-0.14-.33-0.27-0.74t-0.27-.87q-0.14.46-.27,0.87t-0.27.76Z"/><path class="a" d="M46,99.95v1.67h-9.7v25.44h-2V101.61H24.58V99.95H46Z"/><path class="a" d="M64.59,120.31q0.12-.31.24-0.6a5.15,5.15,0,0,1,.28-0.57L76,100.31a0.7,0.7,0,0,1,.31-0.31,1.28,1.28,0,0,1,.43-0.06h1.39v27.11H76.33V104a10,10,0,0,1,.06-1.05L65.52,121.84a0.85,0.85,0,0,1-.78.5H64.43a0.88,0.88,0,0,1-.78-0.5l-11.16-19a10.21,10.21,0,0,1,.06,1.07v23.1H50.81V99.95h1.37a1.38,1.38,0,0,1,.44.06,0.69,0.69,0,0,1,.32.31l11.14,18.85A7.8,7.8,0,0,1,64.59,120.31Z"/><path class="a" d="M110.92,113.49a16.17,16.17,0,0,1-1,5.7,12.59,12.59,0,0,1-2.69,4.37,11.92,11.92,0,0,1-4.16,2.8,15,15,0,0,1-10.69,0,11.91,11.91,0,0,1-4.16-2.8,12.71,12.71,0,0,1-2.7-4.37,17.24,17.24,0,0,1,0-11.38,12.7,12.7,0,0,1,2.7-4.37,12,12,0,0,1,4.16-2.81,13.87,13.87,0,0,1,5.33-1,14.09,14.09,0,0,1,5.37,1,11.86,11.86,0,0,1,4.16,2.81,12.69,12.69,0,0,1,2.69,4.38A16.11,16.11,0,0,1,110.92,113.49Zm-2.07,0a15.22,15.22,0,0,0-.8-5.1,10.93,10.93,0,0,0-2.25-3.83,9.68,9.68,0,0,0-3.5-2.4,12,12,0,0,0-4.55-.83,11.79,11.79,0,0,0-4.5.83,9.88,9.88,0,0,0-3.51,2.4,10.88,10.88,0,0,0-2.28,3.83,16.46,16.46,0,0,0,0,10.2,10.88,10.88,0,0,0,2.28,3.82,9.76,9.76,0,0,0,3.51,2.39,11.9,11.9,0,0,0,4.5.82,12.09,12.09,0,0,0,4.55-.82,9.57,9.57,0,0,0,3.5-2.39A10.94,10.94,0,0,0,108,118.6,15.19,15.19,0,0,0,108.85,113.49Z"/><path class="a" d="M130.78,103.24a0.55,0.55,0,0,1-.51.33,1.13,1.13,0,0,1-.66-0.35,8.58,8.58,0,0,0-1.09-.79,8.68,8.68,0,0,0-1.71-.8,8.77,8.77,0,0,0-5.19.06,5.56,5.56,0,0,0-1.92,1.15,4.89,4.89,0,0,0-1.17,1.69,5.16,5.16,0,0,0-.4,2,4,4,0,0,0,.6,2.28,5.31,5.31,0,0,0,1.57,1.53,10.26,10.26,0,0,0,2.22,1.06q1.24,0.43,2.55.85t2.55,0.93a9.24,9.24,0,0,1,2.22,1.27,5.53,5.53,0,0,1,2.17,4.67,8.63,8.63,0,0,1-.6,3.21,7.48,7.48,0,0,1-1.73,2.61,8.12,8.12,0,0,1-2.77,1.75,10.22,10.22,0,0,1-3.75.64,10.76,10.76,0,0,1-4.7-.95,11.06,11.06,0,0,1-3.45-2.6l0.55-.84a0.69,0.69,0,0,1,.55-0.29,0.79,0.79,0,0,1,.45.23l0.66,0.57q0.39,0.34.94,0.73a7.77,7.77,0,0,0,1.27.73,9.08,9.08,0,0,0,1.66.57,9,9,0,0,0,2.13.23,8.24,8.24,0,0,0,2.93-.49,6.44,6.44,0,0,0,2.18-1.33,5.64,5.64,0,0,0,1.36-2,6.56,6.56,0,0,0,.47-2.48,4.31,4.31,0,0,0-.6-2.37,5.09,5.09,0,0,0-1.57-1.55,10.24,10.24,0,0,0-2.22-1q-1.24-.42-2.55-0.82t-2.55-.9a8.81,8.81,0,0,1-2.22-1.27,5.84,5.84,0,0,1-1.57-1.93,6.31,6.31,0,0,1-.6-2.9,6.75,6.75,0,0,1,.53-2.62,6.52,6.52,0,0,1,1.54-2.23,7.61,7.61,0,0,1,2.51-1.55,9.31,9.31,0,0,1,3.41-.58,10.5,10.5,0,0,1,3.86.67,9.25,9.25,0,0,1,3.12,2Z"/><path class="a" d="M140.38,116.13v10.92h-2V99.95h7.12q4.86,0,7.33,2.09a7.37,7.37,0,0,1,2.47,6,7.88,7.88,0,0,1-.67,3.28,7.29,7.29,0,0,1-1.94,2.58,9.13,9.13,0,0,1-3.08,1.69,13,13,0,0,1-4.1.6h-5.13Zm0-1.57h5.13a10,10,0,0,0,3.28-.5,7.25,7.25,0,0,0,2.45-1.38,6,6,0,0,0,1.54-2.08,6.33,6.33,0,0,0,.54-2.61,6,6,0,0,0-2-4.81q-2-1.69-5.84-1.69h-5.13v13.06Z"/><path class="a" d="M182.28,127.05h-2v-13H163v13h-2V99.95h2v12.64h17.29V99.95h2v27.11Z"/><path class="a" d="M207,99.95v1.63H192.49v11h12.1v1.59h-12.1v11.3H207v1.63H190.48V99.95H207Z"/><path class="a" d="M216.12,114.79v12.26h-2V99.95h7q4.78,0,7.14,1.81a6.29,6.29,0,0,1,2.36,5.32,7.17,7.17,0,0,1-.55,2.84,6.64,6.64,0,0,1-1.57,2.25,8.39,8.39,0,0,1-2.47,1.59,11.14,11.14,0,0,1-3.26.81,3.14,3.14,0,0,1,.84.77l9.5,11.72h-1.74a1.16,1.16,0,0,1-.54-0.11,1.39,1.39,0,0,1-.44-0.38l-8.84-11a2,2,0,0,0-.71-0.59,3,3,0,0,0-1.18-.17h-3.61Zm0-1.46h4.8a11.57,11.57,0,0,0,3.29-.43,7.13,7.13,0,0,0,2.46-1.24,5.34,5.34,0,0,0,1.53-1.93,6,6,0,0,0,.53-2.55,4.94,4.94,0,0,0-1.93-4.29,9.52,9.52,0,0,0-5.62-1.4h-5.05v11.84Z"/><path class="a" d="M254.72,99.95v1.63H240.18v11h12.1v1.59h-12.1v11.3h14.54v1.63H238.17V99.95h16.55Z"/><path class="a" d="M161.84,30.79a37.66,37.66,0,0,0-17.74-17.34A5.37,5.37,0,0,0,137.54,15L121.87,35.67H96.22A5.37,5.37,0,0,0,91,39.95a37.83,37.83,0,0,0,20.92,41.93,5.37,5.37,0,0,0,6.56-1.59l15.67-20.63h25.65A5.37,5.37,0,0,0,165,55.38,37.66,37.66,0,0,0,161.84,30.79ZM116,74.58a0.76,0.76,0,0,1-1,.36A30.23,30.23,0,0,1,98.39,41.63a0.76,0.76,0,0,1,1.5.3,28.7,28.7,0,0,0,15.78,31.63A0.76,0.76,0,0,1,116,74.58Zm5.26-7a0.76,0.76,0,0,1-1,.44,21.79,21.79,0,0,1-13.25-26.51,0.76,0.76,0,0,1,1.47.43,20.27,20.27,0,0,0,12.32,24.65A0.76,0.76,0,0,1,121.29,67.63Zm5.51-7.35a0.76,0.76,0,0,1-.75.65h-0.12a13.4,13.4,0,0,1-9.79-19.49,0.76,0.76,0,0,1,1.35.71,11.87,11.87,0,0,0,8.68,17.27A0.76,0.76,0,0,1,126.8,60.28Zm13.06-6.37a0.76,0.76,0,1,1-1.35-.71,11.87,11.87,0,0,0-8.68-17.26,0.76,0.76,0,1,1,.24-1.51A13.4,13.4,0,0,1,139.86,53.9Zm9.08-.14a0.76,0.76,0,0,1-1.47-.43,20.27,20.27,0,0,0-12.32-24.65,0.76,0.76,0,1,1,.54-1.43A21.79,21.79,0,0,1,148.94,53.76Zm8.67-.06a0.76,0.76,0,0,1-.75.61l-0.15,0a0.76,0.76,0,0,1-.6-0.9,28.7,28.7,0,0,0-15.78-31.63,0.76,0.76,0,1,1,.66-1.38A30.22,30.22,0,0,1,157.61,53.7Z"/><path class="a" d="M128,94.69a47,47,0,1,1,47-47A47.08,47.08,0,0,1,128,94.69Zm0-92.52a45.5,45.5,0,1,0,45.5,45.5A45.55,45.55,0,0,0,128,2.17Z"/></svg>