<svg xmlns="http://www.w3.org/2000/svg" width="192" height="128" viewBox="0 0 192 128"><defs><style>.a{fill:#eee;}</style></defs><title>Intel_Logo</title><path class="a" d="M91.3,112.52c-37.14,3.43-75.85-2-81.28-31C7.37,67.21,13.9,52,22.55,42.61v-5C7,51.23-1.47,68.52,3.39,88.94,9.6,115.13,42.82,130,93.53,125c20.07-1.95,46.33-8.4,64.59-18.43V92.37C141.55,102.24,114.14,110.4,91.3,112.52Zm97.84-75.29c-8.81-43-92.32-45.74-146.16-13v3.62C96.76.24,173,.41,180,40c2.33,13.11-5.05,26.76-18.24,34.62V84.93C177.6,79.11,193.88,60.29,189.15,37.23Z"/><path class="a" d="M155.12,31h-9.74V74.34c0,5.08,2.46,9.5,9.74,10.21Z"/><path class="a" d="M39.16,46.8H29.41V75.14c0,5.1,2.46,9.52,9.76,10.21Z"/><rect class="a" x="29.41" y="32.29" width="9.73" height="9.23"/><path class="a" d="M97.49,84.9C89.6,84.9,86.27,79.42,86.27,74V36.4h9.65V46.8h7.27v7.8H95.92V73.43c0,2.2,1,3.43,3.34,3.43h3.93v8H97.49"/><path class="a" d="M115.25,68.87c0,4.94,3.09,8.57,8.56,8.57a10.91,10.91,0,0,0,8.87-3.63l6,5.68c-3.82,3.78-7.83,6.08-14.9,6.08-9.24,0-18.09-5-18.09-19.74,0-12.57,7.74-19.67,17.88-19.67,10.31,0,16.23,8.32,16.23,19.23v3.48h-24.5m7.85-14.73a7.41,7.41,0,0,0-6.92,4,10,10,0,0,0-.93,4.15h14.88C129.94,58.14,128.06,54.14,123.1,54.14Z"/><path class="a" d="M65.38,54.6c2.83,0,4,1.4,4,3.67V85H79V58.22c0-5.42-2.89-11.4-11.37-11.4H47.74V85h9.66V54.6Z"/><path class="a" d="M165.6,38.72a3.88,3.88,0,1,1,3.89-3.88A3.86,3.86,0,0,1,165.6,38.72Zm0-7.1a3.22,3.22,0,1,0,3.24,3.23A3.26,3.26,0,0,0,165.6,31.61Zm1.72,5.55h-.72a.16.16,0,0,1-.15-.1l-1-1.66a.29.29,0,0,0-.14-.08h-.45V37a.17.17,0,0,1-.16.18h-.65a.18.18,0,0,1-.16-.18V32.8c0-.24.08-.35.3-.38s.85-.06,1.19-.06c1.21,0,1.92.36,1.92,1.48v.08a1.17,1.17,0,0,1-.87,1.24l1,1.74a.31.31,0,0,1,0,.12A.14.14,0,0,1,167.32,37.17Zm-.94-3.32c0-.47-.29-.62-.91-.62h-.62v1.33l.62,0c.62,0,.91-.21.91-.65Z"/></svg>